<svg width="563" height="102" viewBox="0 0 563 102" fill="none" xmlns="http://www.w3.org/2000/svg">
<g clip-path="url(#clip0)">
<path d="M138.3 34.2011H134.781C134.792 34.05 134.811 33.9011 134.821 33.75C135.298 28.2679 134.979 22.7467 133.874 17.356C133.551 14.6399 132.21 12.1471 130.121 10.3801C127.791 8.7527 122.914 7.22739 116.345 15.3028C114.118 18.114 112.348 21.2575 111.099 24.6188C110.248 22.3247 108.063 20.7994 105.616 20.7917C104.228 20.7917 103.102 19.6662 103.102 18.2782V10.7353C104.028 10.7353 104.779 9.98492 104.779 9.05961V5.70746C104.779 2.92998 102.527 0.678848 99.75 0.678848H93.0457C90.269 0.678848 88.0171 2.92998 88.0171 5.70746V9.05961C88.0171 9.98492 88.7675 10.7353 89.6936 10.7353V18.2782C89.6936 19.6662 88.568 20.7917 87.1793 20.7917C86.3077 20.7971 85.4483 20.9981 84.665 21.3802V4.031C84.6558 3.95197 84.6396 3.87448 84.6182 3.79775C84.6074 3.67729 84.5829 3.55837 84.546 3.44251C84.5031 3.34584 84.4509 3.253 84.3903 3.1663C84.3404 3.07193 84.2806 2.98292 84.2107 2.90159C84.1256 2.81796 84.0312 2.74431 83.9292 2.68216C83.8693 2.62692 83.8056 2.57628 83.7381 2.53101C83.7235 2.53101 83.7051 2.53101 83.6882 2.5172C83.5831 2.47807 83.4742 2.44814 83.3629 2.4305C83.2586 2.39827 83.1512 2.37602 83.043 2.36528C83.0223 2.36528 83.0077 2.35531 82.9893 2.35531C82.9056 2.36528 82.8235 2.38139 82.743 2.40518C82.6287 2.41592 82.5166 2.43817 82.4077 2.47193C82.3056 2.5172 82.209 2.57398 82.1192 2.63996C82.0287 2.68753 81.9435 2.74354 81.8645 2.80722C81.7793 2.89469 81.7041 2.9906 81.6397 3.09418C81.5867 3.15325 81.5376 3.21617 81.4923 3.28215C79.9939 6.2806 75.9827 6.81691 74.788 6.90898C72.2699 6.9251 69.774 6.43789 67.4469 5.47574C66.273 5.08675 65.0769 4.68624 63.8377 4.37933C59.5925 3.48318 55.2184 3.36962 50.9317 4.04481C50.8695 4.06092 50.8074 4.08164 50.7475 4.10619C50.624 4.13304 50.5036 4.17448 50.3892 4.22895C50.3079 4.27268 50.232 4.32409 50.1614 4.38317C50.0632 4.45069 49.9742 4.52972 49.8944 4.61795C49.8314 4.69237 49.7754 4.77217 49.7271 4.85734C49.6665 4.95247 49.6151 5.05375 49.5744 5.15887C49.543 5.26398 49.5215 5.37217 49.5107 5.48112C49.49 5.55477 49.4754 5.63073 49.467 5.70746V34.2011H47.7913C45.0138 34.2011 42.7627 36.4523 42.7627 39.229V42.5811C42.7627 45.3586 45.0138 47.6097 47.7913 47.6097H48.0829L55.4102 85.711C55.5851 86.6823 55.9826 87.6 56.5703 88.3925C55.5989 91.7163 56.0418 95.5013 58.6119 98.2986C60.7843 100.663 64.1723 101.199 66.8239 101.245C69.1809 101.286 72.029 100.115 73.6003 98.2986C75.3368 96.2914 75.708 94.8613 76.285 91.1884H109.806C109.813 93.6567 110.519 95.7862 112.386 97.8674C114.523 100.249 116.663 101.215 119.864 101.22C123.37 101.225 126.003 99.7457 127.904 97.2206C129.804 94.6956 130.404 91.4224 129.521 88.3872C130.105 87.603 130.501 86.6946 130.677 85.7325L138.009 47.6097H138.3C141.078 47.6097 143.329 45.3586 143.329 42.5811V39.229C143.329 36.4523 141.078 34.2011 138.3 34.2011ZM118.945 17.4166C121.025 14.8555 125 10.8895 128.197 13.1276C129.576 14.4235 130.43 16.1828 130.594 18.0687C131.631 23.1457 131.928 28.3462 131.475 33.5083C131.458 33.74 131.433 33.9694 131.413 34.2011H123.411L126.243 22.8802C126.399 22.2956 126.229 21.671 125.795 21.2475C125.363 20.8247 124.735 20.6675 124.153 20.837C123.572 21.0073 123.128 21.4777 122.991 22.0677L119.957 34.2011H111.835C112.817 28.1145 115.256 22.3562 118.945 17.4166ZM84.665 30.849H108.131V34.2011H84.665V30.849ZM91.3693 5.70746C91.3693 4.78138 92.1204 4.031 93.0457 4.031H99.75C100.676 4.031 101.426 4.78138 101.426 5.70746V7.38315H91.3693V5.70746ZM87.1793 24.1439C90.4194 24.1439 93.0457 21.5176 93.0457 18.2782V10.7353H99.75V18.2782C99.75 21.5176 102.376 24.1439 105.616 24.1439C107.005 24.1439 108.131 25.2702 108.131 26.6582V27.4968H84.665V26.6582C84.665 25.2702 85.7905 24.1439 87.1793 24.1439ZM52.8191 7.21589C56.2212 6.7563 59.6769 6.90054 63.0283 7.64171C64.1377 7.91639 65.2272 8.28007 66.3804 8.6637C68.8203 9.62277 71.4014 10.176 74.02 10.2995C74.3553 10.2995 74.7006 10.288 75.0443 10.2596C77.2701 10.1261 79.4261 9.43326 81.3128 8.24478V34.2011H77.9607V18.2782C77.9607 16.4268 76.4599 14.9261 74.6085 14.9261H59.5234C57.6721 14.9261 56.1713 16.4268 56.1713 18.2782V34.2011H52.8191V7.21589ZM74.6085 34.2011H59.5234V18.2782H74.6085V34.2011ZM66.2277 97.8674C62.5257 97.8674 59.5234 94.8659 59.5234 91.1631C59.5234 87.4603 62.5257 84.4588 66.2277 84.4588C69.9305 84.4588 72.9328 87.4603 72.9328 91.1631C72.9328 94.8659 69.9305 97.8674 66.2277 97.8674ZM119.864 97.8674C116.161 97.8674 113.159 94.8659 113.159 91.1631C113.159 87.4603 116.161 84.4588 119.864 84.4588C123.566 84.4588 126.568 87.4603 126.568 91.1631C126.568 94.8659 123.566 97.8674 119.864 97.8674ZM127.478 84.613C125.142 81.8854 121.527 80.6141 117.998 81.2793C114.47 81.9453 111.566 84.445 110.383 87.8363H75.708C74.5264 84.445 71.6216 81.9437 68.0922 81.2785C64.5636 80.6125 60.9475 81.8847 58.6119 84.613L51.4972 47.6097H134.594L127.478 84.613ZM139.977 42.5811C139.977 43.5072 139.226 44.2576 138.3 44.2576H47.7913C46.8652 44.2576 46.1148 43.5072 46.1148 42.5811V39.229C46.1148 38.3036 46.8652 37.5533 47.7913 37.5533H121.266H121.3H132.949H132.979H138.3C139.226 37.5533 139.977 38.3036 139.977 39.229V42.5811Z" fill="white"/>
<path d="M63.1055 57.0423L66.6978 73.8038C67.2027 76.1171 69.2459 77.7698 71.6136 77.7798H75.0947C76.5525 77.7798 77.9382 77.1468 78.8934 76.0458C79.8486 74.9448 80.2791 73.4831 80.0727 72.0407L77.6773 55.2792C77.3144 52.8078 75.1998 50.9726 72.7016 50.9618H68.0213C66.5037 50.9618 65.0666 51.6485 64.1122 52.8286C63.1577 54.0094 62.7879 55.5585 63.1055 57.0423ZM66.7247 54.9362C67.0416 54.5441 67.518 54.3155 68.0213 54.314H72.7016C73.5349 54.3147 74.2415 54.9285 74.3589 55.7541L76.7543 72.5148C76.8226 72.9959 76.6791 73.4824 76.3607 73.8499C76.0423 74.2166 75.5804 74.4269 75.0947 74.4269H71.6136C70.8226 74.4276 70.1397 73.8744 69.974 73.1018L66.3825 56.3403C66.2781 55.8446 66.404 55.3283 66.7247 54.9362Z" fill="white"/>
<path d="M86.2539 72.6437C86.6168 75.1158 88.7321 76.9503 91.2303 76.9618H97.5817C100.358 76.9618 102.61 74.7099 102.61 71.9332V55.1725C102.61 52.395 100.358 50.1439 97.5817 50.1439H91.3899C89.9321 50.1439 88.5465 50.7761 87.5912 51.8771C86.636 52.9781 86.2063 54.4397 86.412 55.8829L86.2539 72.6437ZM90.1247 54.0745C90.4408 53.7047 90.9035 53.4929 91.3899 53.496H97.5817C98.507 53.496 99.2574 54.2464 99.2574 55.1725V71.9332C99.2574 72.8585 98.507 73.6089 97.5817 73.6089H91.2303C90.3963 73.6081 89.6897 72.9951 89.5723 72.1695L89.7311 55.4088C89.6582 54.9277 89.8025 54.439 90.1247 54.0745Z" fill="white"/>
<path d="M112.805 77.7798H116.286C118.654 77.7698 120.697 76.1171 121.202 73.8038L124.794 57.0423C125.112 55.5585 124.742 54.0094 123.788 52.8286C122.833 51.6485 121.396 50.9618 119.878 50.9618H115.198C112.7 50.9726 110.585 52.8078 110.222 55.2792L107.827 72.0407C107.621 73.4831 108.051 74.9448 109.006 76.0458C109.962 77.1468 111.347 77.7798 112.805 77.7798ZM113.541 55.7518C113.659 54.927 114.366 54.3147 115.198 54.314H119.878C120.384 54.314 120.863 54.5426 121.181 54.9362C121.5 55.3291 121.623 55.8454 121.517 56.3403L117.926 73.1018C117.759 73.8737 117.076 74.4261 116.286 74.4253H112.805C112.319 74.4253 111.857 74.2151 111.539 73.8476C111.221 73.4808 111.077 72.9944 111.145 72.5133L113.541 55.7518Z" fill="white"/>
</g>
<line x1="16.9135" y1="53.7422" x2="39.3655" y2="53.7422" stroke="white" stroke-width="3.86792" stroke-linecap="round" stroke-linejoin="round"/>
<line x1="10.432" y1="69.6516" x2="39.3659" y2="69.6516" stroke="white" stroke-width="3.86792" stroke-linecap="round" stroke-linejoin="round"/>
<line x1="2.57556" y1="85.5619" x2="39.3662" y2="85.5619" stroke="white" stroke-width="3.86792" stroke-linecap="round" stroke-linejoin="round"/>
<path d="M200.412 46.4447L200.316 31.1327L193.02 43.4207H188.028L180.732 31.6607V46.4447H170.412V12.8447H179.724L190.668 30.7487L201.324 12.8447H210.636L210.732 46.4447H200.412ZM241.505 40.5887H228.737L226.481 46.4447H214.961L229.649 12.8447H240.785L255.473 46.4447H243.761L241.505 40.5887ZM238.385 32.4287L235.121 23.9807L231.857 32.4287H238.385ZM292.801 12.8447V46.4447H283.489L270.721 31.1807V46.4447H259.681V12.8447H268.993L281.761 28.1087V12.8447H292.801ZM300.659 12.8447H317.219C320.963 12.8447 324.259 13.5327 327.107 14.9087C329.987 16.2527 332.211 18.1887 333.779 20.7167C335.379 23.2447 336.179 26.2207 336.179 29.6447C336.179 33.0687 335.379 36.0447 333.779 38.5727C332.211 41.1007 329.987 43.0527 327.107 44.4287C324.259 45.7727 320.963 46.4447 317.219 46.4447H300.659V12.8447ZM316.739 37.6127C319.171 37.6127 321.107 36.9247 322.547 35.5487C324.019 34.1407 324.755 32.1727 324.755 29.6447C324.755 27.1167 324.019 25.1647 322.547 23.7887C321.107 22.3807 319.171 21.6767 316.739 21.6767H311.987V37.6127H316.739ZM365.143 40.5887H352.375L350.119 46.4447H338.599L353.287 12.8447H364.423L379.111 46.4447H367.399L365.143 40.5887ZM362.023 32.4287L358.759 23.9807L355.495 32.4287H362.023ZM383.319 12.8447H399.879C403.623 12.8447 406.919 13.5327 409.767 14.9087C412.647 16.2527 414.871 18.1887 416.439 20.7167C418.039 23.2447 418.839 26.2207 418.839 29.6447C418.839 33.0687 418.039 36.0447 416.439 38.5727C414.871 41.1007 412.647 43.0527 409.767 44.4287C406.919 45.7727 403.623 46.4447 399.879 46.4447H383.319V12.8447ZM399.399 37.6127C401.831 37.6127 403.767 36.9247 405.207 35.5487C406.679 34.1407 407.415 32.1727 407.415 29.6447C407.415 27.1167 406.679 25.1647 405.207 23.7887C403.767 22.3807 401.831 21.6767 399.399 21.6767H394.647V37.6127H399.399ZM425.375 12.8447H436.703V46.4447H425.375V12.8447ZM451.852 21.6287H442.012V12.8447H473.02V21.6287H463.18V46.4447H451.852V21.6287ZM495.51 47.2127C491.894 47.2127 488.646 46.4607 485.766 44.9567C482.886 43.4527 480.63 41.3727 478.998 38.7167C477.366 36.0287 476.55 33.0047 476.55 29.6447C476.55 26.2847 477.366 23.2767 478.998 20.6207C480.63 17.9327 482.886 15.8367 485.766 14.3327C488.646 12.8287 491.894 12.0767 495.51 12.0767C499.126 12.0767 502.374 12.8287 505.254 14.3327C508.134 15.8367 510.39 17.9327 512.022 20.6207C513.654 23.2767 514.47 26.2847 514.47 29.6447C514.47 33.0047 513.654 36.0287 512.022 38.7167C510.39 41.3727 508.134 43.4527 505.254 44.9567C502.374 46.4607 499.126 47.2127 495.51 47.2127ZM495.51 38.0447C496.918 38.0447 498.182 37.7087 499.302 37.0367C500.454 36.3327 501.366 35.3567 502.038 34.1087C502.71 32.8287 503.046 31.3407 503.046 29.6447C503.046 27.9487 502.71 26.4767 502.038 25.2287C501.366 23.9487 500.454 22.9727 499.302 22.3007C498.182 21.5967 496.918 21.2447 495.51 21.2447C494.102 21.2447 492.822 21.5967 491.67 22.3007C490.55 22.9727 489.654 23.9487 488.982 25.2287C488.31 26.4767 487.974 27.9487 487.974 29.6447C487.974 31.3407 488.31 32.8287 488.982 34.1087C489.654 35.3567 490.55 36.3327 491.67 37.0367C492.822 37.7087 494.102 38.0447 495.51 38.0447ZM533.509 47.2127C530.725 47.2127 528.005 46.9087 525.349 46.3007C522.725 45.6607 520.565 44.8127 518.869 43.7567L522.517 35.5007C524.117 36.4287 525.909 37.1807 527.893 37.7567C529.877 38.3007 531.781 38.5727 533.605 38.5727C535.173 38.5727 536.293 38.4287 536.965 38.1407C537.637 37.8207 537.973 37.3567 537.973 36.7487C537.973 36.0447 537.525 35.5167 536.629 35.1647C535.765 34.8127 534.325 34.4287 532.309 34.0127C529.717 33.4687 527.557 32.8927 525.829 32.2847C524.101 31.6447 522.597 30.6207 521.317 29.2127C520.037 27.7727 519.397 25.8367 519.397 23.4047C519.397 21.2927 519.989 19.3727 521.173 17.6447C522.357 15.9167 524.117 14.5567 526.453 13.5647C528.821 12.5727 531.685 12.0767 535.045 12.0767C537.349 12.0767 539.605 12.3327 541.813 12.8447C544.053 13.3247 546.021 14.0447 547.717 15.0047L544.309 23.2127C541.013 21.5487 537.893 20.7167 534.949 20.7167C532.037 20.7167 530.581 21.4207 530.581 22.8287C530.581 23.5007 531.013 24.0127 531.877 24.3647C532.741 24.6847 534.165 25.0367 536.149 25.4207C538.709 25.9007 540.869 26.4607 542.629 27.1007C544.389 27.7087 545.909 28.7167 547.189 30.1247C548.501 31.5327 549.157 33.4527 549.157 35.8847C549.157 37.9967 548.565 39.9167 547.381 41.6447C546.197 43.3407 544.421 44.7007 542.053 45.7247C539.717 46.7167 536.869 47.2127 533.509 47.2127ZM193.308 85.5887H180.54L178.284 91.4447H166.764L181.452 57.8447H192.588L207.276 91.4447H195.564L193.308 85.5887ZM190.188 77.4287L186.924 68.9807L183.66 77.4287H190.188ZM249.415 95.6687C248.231 97.0767 246.807 98.1327 245.143 98.8367C243.479 99.5727 241.639 99.9407 239.623 99.9407C237.607 99.9407 235.799 99.6847 234.199 99.1727C232.599 98.6927 230.999 97.8607 229.399 96.6767C227.799 95.5247 225.975 93.8767 223.927 91.7327C221.111 91.1567 218.631 90.0687 216.487 88.4687C214.343 86.8367 212.663 84.8367 211.447 82.4687C210.263 80.1007 209.671 77.4927 209.671 74.6447C209.671 71.2847 210.487 68.2767 212.119 65.6207C213.751 62.9327 216.007 60.8367 218.887 59.3327C221.767 57.8287 225.015 57.0767 228.631 57.0767C232.247 57.0767 235.495 57.8287 238.375 59.3327C241.255 60.8367 243.511 62.9327 245.143 65.6207C246.775 68.2767 247.591 71.2847 247.591 74.6447C247.591 78.3247 246.615 81.5887 244.663 84.4367C242.711 87.2527 240.071 89.3327 236.743 90.6767C237.223 91.1887 237.703 91.5407 238.183 91.7327C238.695 91.9567 239.255 92.0687 239.863 92.0687C241.527 92.0687 243.079 91.3487 244.519 89.9087L249.415 95.6687ZM228.631 66.2447C227.223 66.2447 225.943 66.5967 224.791 67.3007C223.671 67.9727 222.775 68.9487 222.103 70.2287C221.431 71.4767 221.095 72.9487 221.095 74.6447C221.095 76.3407 221.431 77.8287 222.103 79.1087C222.775 80.3567 223.671 81.3327 224.791 82.0367C225.943 82.7087 227.223 83.0447 228.631 83.0447C230.039 83.0447 231.303 82.7087 232.423 82.0367C233.575 81.3327 234.487 80.3567 235.159 79.1087C235.831 77.8287 236.167 76.3407 236.167 74.6447C236.167 72.9487 235.831 71.4767 235.159 70.2287C234.487 68.9487 233.575 67.9727 232.423 67.3007C231.303 66.5967 230.039 66.2447 228.631 66.2447ZM270.279 57.8447C273.383 57.8447 276.087 58.3567 278.391 59.3807C280.695 60.4047 282.471 61.8767 283.719 63.7967C284.967 65.7167 285.591 67.9567 285.591 70.5167C285.591 73.0767 284.967 75.3167 283.719 77.2367C282.471 79.1567 280.695 80.6287 278.391 81.6527C276.087 82.6767 273.383 83.1887 270.279 83.1887H265.431V91.4447H254.103V57.8447H270.279ZM269.559 74.4527C271.095 74.4527 272.247 74.1167 273.015 73.4447C273.783 72.7407 274.167 71.7647 274.167 70.5167C274.167 69.2687 273.783 68.3087 273.015 67.6367C272.247 66.9327 271.095 66.5807 269.559 66.5807H265.431V74.4527H269.559Z" fill="white"/>
<defs>
<clipPath id="clip0">
<rect x="42.7627" y="0.678848" width="100.566" height="100.566" fill="white"/>
</clipPath>
</defs>
</svg>
